<svg width="200" height="200" viewBox="0 0 200 200" fill="none" xmlns="http://www.w3.org/2000/svg">
<circle cx="100" cy="100" r="100" fill="black" style="fill:black;fill-opacity:1;"/>
<path d="M100 61L109.209 77.7687L127.577 72.4228L122.231 90.7915L139 100L122.231 109.209L127.577 127.577L109.209 122.231L100 139L90.7915 122.231L72.4228 127.577L77.7687 109.209L61 100L77.7687 90.7915L72.4228 72.4228L90.7915 77.7687L100 61Z" fill="white" style="fill:white;fill-opacity:1;"/>
<path d="M105.402 13.8354L109.223 14.4179L108.139 21.5288L116.105 22.7431L117.189 15.6321L120.997 16.2126L118.215 34.4627L114.407 33.8822L115.584 26.1625L107.618 24.9482L106.441 32.6679L102.62 32.0855L105.402 13.8354Z" fill="white" style="fill:white;fill-opacity:1;"/>
<path d="M128.896 18.9346L132.51 20.3052L125.964 37.5665L122.35 36.1959L128.896 18.9346Z" fill="white" style="fill:white;fill-opacity:1;"/>
<path d="M140.041 23.4556L147.021 27.8863C148.297 28.6961 149.244 29.5666 149.864 30.4978C150.483 31.429 150.782 32.3843 150.76 33.3637C150.746 34.3479 150.425 35.334 149.798 36.3222C149.302 37.1039 148.71 37.7109 148.021 38.1431C147.341 38.58 146.611 38.841 145.833 38.9263C145.059 39.0042 144.287 38.9173 143.515 38.6657L143.72 47.6572L140.048 45.3259L140.04 37.3441L137.02 35.4272L133.411 41.1129L130.148 39.0415L140.041 23.4556ZM142.216 34.8455C143.159 35.4447 143.986 35.6903 144.696 35.5823C145.411 35.467 145.988 35.0627 146.429 34.3695C146.883 33.6542 146.976 32.9687 146.71 32.3132C146.448 31.6502 145.852 31.0239 144.923 30.434L141.549 28.2924L138.775 32.6618L142.216 34.8455Z" fill="white" style="fill:white;fill-opacity:1;"/>
<path d="M159.92 37.7894L168.799 47.6724L166.381 49.8439L160.086 42.8362L156.899 45.6995L162.66 52.1127L160.224 54.3017L154.462 47.8885L151.187 50.8306L157.842 58.238L155.425 60.4095L146.187 50.1269L159.92 37.7894Z" fill="white" style="fill:white;fill-opacity:1;"/>
<path d="M179.551 65.2024L181.214 70.558L172.364 76.8724C171.982 77.1463 171.438 77.4983 170.73 77.9284C170.022 78.3585 169.552 78.6416 169.32 78.7777C169.591 78.7667 170.133 78.7448 170.946 78.712C171.769 78.6849 172.408 78.6788 172.861 78.6937L183.778 78.8166L185.433 84.1471L167.802 89.6205L166.741 86.2044L177.427 82.887C178.328 82.6073 179.186 82.364 180 82.1571C180.816 81.9585 181.245 81.8528 181.287 81.8398C181.276 81.8341 180.958 81.8413 180.333 81.8615C180.032 81.8635 179.385 81.8722 178.393 81.8876C177.404 81.9112 176.669 81.9153 176.188 81.8998L165.327 81.6497L164.395 78.6465L173.205 72.2898C173.659 71.9567 174.378 71.4591 175.362 70.7971C176.356 70.1408 177.047 69.6841 177.433 69.4269L177.078 69.5646C176.947 69.6144 176.484 69.7857 175.687 70.0786C174.9 70.3689 174.226 70.6009 173.667 70.7744L162.981 74.0918L161.921 70.6757L179.551 65.2024Z" fill="white" style="fill:white;fill-opacity:1;"/>
<path d="M186.437 94.8864L186.261 108.171L183.012 108.128L183.137 98.7081L178.853 98.6512L178.739 107.272L175.463 107.228L175.578 98.6077L171.176 98.5493L171.044 108.506L167.795 108.463L167.978 94.6414L186.437 94.8864Z" fill="white" style="fill:white;fill-opacity:1;"/>
<path d="M168.879 124.136C169.103 123.493 169.476 122.952 169.998 122.514C170.521 122.076 171.114 121.792 171.779 121.663C172.452 121.536 173.118 121.587 173.778 121.817C174.438 122.047 174.989 122.418 175.429 122.932C175.87 123.446 176.155 124.036 176.285 124.7C176.423 125.368 176.38 126.023 176.156 126.667C175.926 127.327 175.551 127.876 175.028 128.314C174.512 128.763 173.919 129.056 173.252 129.194C172.584 129.332 171.921 129.286 171.261 129.056C170.601 128.827 170.047 128.45 169.601 127.925C169.163 127.402 168.877 126.803 168.742 126.128C168.604 125.46 168.65 124.796 168.879 124.136Z" fill="white" style="fill:white;fill-opacity:1;"/>
<path d="M172.31 148.102L169.889 151.114L164.282 146.608L159.234 152.888L164.84 157.395L162.427 160.397L148.038 148.831L150.452 145.828L156.538 150.721L161.586 144.441L155.5 139.548L157.922 136.536L172.31 148.102Z" fill="white" style="fill:white;fill-opacity:1;"/>
<path d="M156.148 165.845L153.155 168.29L141.476 153.993L144.47 151.547L156.148 165.845Z" fill="white" style="fill:white;fill-opacity:1;"/>
<path d="M146.684 173.229L139.362 177.068C138.023 177.769 136.796 178.156 135.68 178.228C134.564 178.3 133.587 178.083 132.749 177.575C131.903 177.072 131.209 176.302 130.665 175.265C130.236 174.445 130.005 173.629 129.974 172.817C129.935 172.009 130.073 171.246 130.387 170.529C130.706 169.82 131.166 169.194 131.769 168.651L123.875 164.342L127.727 162.323L134.649 166.298L137.817 164.638L134.69 158.673L138.114 156.879L146.684 173.229ZM135.728 169.431C134.738 169.95 134.113 170.544 133.852 171.213C133.595 171.89 133.658 172.592 134.039 173.319C134.432 174.07 134.98 174.493 135.681 174.589C136.386 174.692 137.226 174.489 138.201 173.978L141.74 172.123L139.337 167.539L135.728 169.431Z" fill="white" style="fill:white;fill-opacity:1;"/>
<path d="M124.237 183.326L111.233 186.044L110.568 182.863L119.789 180.936L118.913 176.743L110.474 178.506L109.804 175.3L118.243 173.536L117.342 169.227L107.595 171.264L106.931 168.083L120.461 165.256L124.237 183.326Z" fill="white" style="fill:white;fill-opacity:1;"/>
<path d="M90.6581 186.545L85.1895 185.304L84.1529 174.481C84.1067 174.014 84.0746 173.366 84.0566 172.538C84.0385 171.71 84.0287 171.161 84.0271 170.892C83.9009 171.132 83.6486 171.613 83.2702 172.333C82.8813 173.06 82.5671 173.615 82.3275 174L76.7566 183.39L71.3136 182.154L75.4001 164.151L78.8883 164.943L76.4114 175.854C76.2026 176.774 75.9841 177.638 75.7558 178.446C75.5191 179.253 75.3959 179.677 75.3862 179.72C75.3967 179.713 75.5496 179.434 75.8448 178.883C75.9938 178.621 76.31 178.057 76.7933 177.191C77.2681 176.322 77.6325 175.684 77.8863 175.276L83.5391 165.999L86.6056 166.695L87.6991 177.503C87.7601 178.063 87.8309 178.935 87.9118 180.118C87.9822 181.307 88.032 182.133 88.0611 182.597L88.1197 182.22C88.1421 182.082 88.2258 181.595 88.3707 180.759C88.5138 179.932 88.6501 179.233 88.7796 178.662L91.2565 167.75L94.7446 168.542L90.6581 186.545Z" fill="white" style="fill:white;fill-opacity:1;"/>
<path d="M61.5306 177.657L50.129 170.837L51.7969 168.049L59.8815 172.884L62.0808 169.208L54.682 164.782L56.3634 161.971L63.7621 166.396L66.0219 162.618L57.4763 157.507L59.1442 154.718L71.0069 161.814L61.5306 177.657Z" fill="white" style="fill:white;fill-opacity:1;"/>
<path d="M45.079 147.831C45.5244 148.346 45.8062 148.94 45.9243 149.611C46.0425 150.282 45.9915 150.938 45.7714 151.578C45.5446 152.224 45.1668 152.776 44.638 153.233C44.1092 153.689 43.5121 153.98 42.8465 154.105C42.181 154.23 41.528 154.182 40.8876 153.962C40.2407 153.747 39.6945 153.382 39.2491 152.867C38.7923 152.338 38.5048 151.738 38.3866 151.067C38.2561 150.395 38.2981 149.735 38.5125 149.088C38.727 148.441 39.0986 147.889 39.6274 147.432C40.1562 146.976 40.7595 146.685 41.4374 146.561C42.1086 146.443 42.7706 146.495 43.4233 146.716C44.0703 146.93 44.6222 147.302 45.079 147.831Z" fill="white" style="fill:white;fill-opacity:1;"/>
<path d="M22.5893 138.822L21.1904 135.219L27.8958 132.616L24.9793 125.104L18.2739 127.708L16.8797 124.117L34.089 117.435L35.4832 121.026L28.2038 123.852L31.1202 131.364L38.3996 128.537L39.7986 132.141L22.5893 138.822Z" fill="white" style="fill:white;fill-opacity:1;"/>
<path d="M15.3053 115.908L14.6931 112.092L32.9209 109.167L33.5331 112.984L15.3053 115.908Z" fill="white" style="fill:white;fill-opacity:1;"/>
<path d="M13.6701 103.922L14.0245 95.6626C14.0892 94.1529 14.3704 92.8972 14.868 91.8957C15.3656 90.8941 16.0441 90.1582 16.9036 89.688C17.7635 89.2091 18.7781 88.9947 19.9475 89.0448C20.8725 89.0845 21.694 89.2946 22.4121 89.6751C23.1306 90.0469 23.721 90.5487 24.1835 91.1806C24.6373 91.812 24.9477 92.5248 25.1147 93.3188L32.8031 88.6521L32.6167 92.998L25.7047 96.9898L25.5514 100.563L32.2797 100.852L32.1141 104.714L13.6701 103.922ZM22.4535 96.352C22.5015 95.235 22.3014 94.3959 21.8534 93.8346C21.3966 93.2729 20.7581 92.9745 19.9378 92.9393C19.0913 92.903 18.4506 93.164 18.0157 93.7224C17.5721 94.2804 17.3268 95.1092 17.2796 96.2088L17.1083 100.201L22.2789 100.423L22.4535 96.352Z" fill="white" style="fill:white;fill-opacity:1;"/>
<path d="M16.1739 79.4949L20.3283 66.8756L23.4147 67.8917L20.4689 76.8397L24.5385 78.1794L27.2343 69.9905L30.3456 71.0148L27.6497 79.2037L31.8313 80.5803L34.945 71.122L38.0314 72.1381L33.709 85.2676L16.1739 79.4949Z" fill="white" style="fill:white;fill-opacity:1;"/>
<path d="M30.2064 48.8449L34.0236 44.7369L43.9057 49.2693C44.3331 49.4638 44.9096 49.7609 45.635 50.1607C46.3604 50.5606 46.8399 50.8273 47.0735 50.9609C46.9291 50.7313 46.6403 50.2722 46.2071 49.5835C45.7735 48.8825 45.4504 48.3319 45.238 47.9318L39.9099 38.4022L43.7092 34.3134L57.2329 46.8798L54.7981 49.5L46.6014 41.8835C45.9103 41.2414 45.2725 40.6189 44.6879 40.0161C44.1093 39.4069 43.804 39.0875 43.7721 39.0577C43.7725 39.0701 43.937 39.3422 44.2655 39.874C44.4172 40.1342 44.7467 40.6907 45.2539 41.5436C45.767 42.39 46.1365 43.0254 46.3622 43.4498L51.5518 52.9937L49.4113 55.2973L39.5127 50.8211C38.9975 50.5928 38.208 50.217 37.1443 49.6936C36.0801 49.1578 35.3403 48.7863 34.9248 48.5791L35.2209 48.8185C35.3293 48.9072 35.7086 49.224 36.359 49.7687C37.003 50.3075 37.5394 50.7761 37.9681 51.1745L46.1649 58.791L43.7301 61.4113L30.2064 48.8449Z" fill="white" style="fill:white;fill-opacity:1;"/>
<path d="M52.4145 28.1396L64.0127 21.6597L65.5975 24.4963L57.3736 29.091L59.4632 32.8312L66.9894 28.6263L68.5871 31.4858L61.0609 35.6907L63.208 39.5339L71.9009 34.6772L73.4858 37.5138L61.4187 44.2557L52.4145 28.1396Z" fill="white" style="fill:white;fill-opacity:1;"/>
<path d="M86.5324 28.777C85.8629 28.9034 85.2082 28.8492 84.5683 28.6144C83.9284 28.3796 83.3869 28.0063 82.9436 27.4944C82.4987 26.9739 82.2114 26.3704 82.0818 25.6837C81.9522 24.997 82.0005 24.3346 82.2267 23.6963C82.4529 23.0581 82.8219 22.5173 83.3338 22.074C83.8441 21.6221 84.4339 21.333 85.1034 21.2066C85.7901 21.077 86.4534 21.1296 87.0932 21.3644C87.7401 21.589 88.2894 21.9564 88.7413 22.4667C89.1932 22.9769 89.4839 23.5754 89.6135 24.262C89.7431 24.9487 89.6914 25.6163 89.4582 26.2647C89.2234 26.9046 88.8466 27.4513 88.3278 27.9048C87.8175 28.3567 87.219 28.6474 86.5324 28.777Z" fill="white" style="fill:white;fill-opacity:1;"/>
</svg>
