<svg width="182" height="183" viewBox="0 0 182 183" fill="none" xmlns="http://www.w3.org/2000/svg">
<path d="M96.3437 4.75776L100.165 5.34022L99.0807 12.4511L107.047 13.6654L108.13 6.55449L111.939 7.13497L109.157 25.3851L105.349 24.8046L106.525 17.0849L98.5595 15.8706L97.3827 23.5903L93.5617 23.0078L96.3437 4.75776Z" fill="white" style="fill:white;fill-opacity:1;"/>
<path d="M119.838 9.85709L123.452 11.2276L116.906 28.4889L113.292 27.1184L119.838 9.85709Z" fill="white" style="fill:white;fill-opacity:1;"/>
<path d="M130.983 14.3778L137.963 18.8085C139.239 19.6184 140.186 20.4889 140.806 21.42C141.425 22.3512 141.724 23.3065 141.702 24.286C141.688 25.2701 141.367 26.2563 140.74 27.2445C140.244 28.0261 139.651 28.6331 138.963 29.0653C138.282 29.5022 137.553 29.7633 136.774 29.8486C136.001 29.9265 135.228 29.8396 134.457 29.5879L134.662 38.5794L130.989 36.2482L130.981 28.2664L127.962 26.3494L124.352 32.0351L121.089 29.9637L130.983 14.3778ZM133.157 25.7678C134.101 26.367 134.928 26.6126 135.638 26.5046C136.353 26.3892 136.93 25.9849 137.37 25.2917C137.824 24.5764 137.918 23.891 137.651 23.2354C137.389 22.5725 136.794 21.9461 135.864 21.3563L132.491 19.2146L129.717 23.584L133.157 25.7678Z" fill="white" style="fill:white;fill-opacity:1;"/>
<path d="M150.862 28.7117L159.74 38.5946L157.323 40.7662L151.027 33.7584L147.84 36.6217L153.602 43.0349L151.165 45.224L145.404 38.8108L142.129 41.7528L148.784 49.1602L146.366 51.3317L137.129 41.0491L150.862 28.7117Z" fill="white" style="fill:white;fill-opacity:1;"/>
<path d="M170.493 56.1247L172.156 61.4803L163.305 67.7947C162.924 68.0686 162.379 68.4206 161.672 68.8508C160.964 69.2809 160.494 69.564 160.261 69.7001C160.532 69.6891 161.074 69.6672 161.887 69.6343C162.711 69.6072 163.35 69.6011 163.802 69.616L174.72 69.7389L176.374 75.0695L158.744 80.5428L157.683 77.1268L168.369 73.8094C169.27 73.5297 170.127 73.2864 170.941 73.0795C171.758 72.8809 172.187 72.7752 172.228 72.7622C172.217 72.7565 171.9 72.7637 171.275 72.7839C170.974 72.7859 170.327 72.7946 169.335 72.8099C168.345 72.8336 167.61 72.8377 167.13 72.8222L156.269 72.572L155.337 69.5689L164.147 63.2122C164.601 62.879 165.32 62.3815 166.303 61.7195C167.298 61.0632 167.988 60.6065 168.375 60.3493L168.02 60.487C167.889 60.5367 167.425 60.7081 166.629 61.001C165.841 61.2913 165.168 61.5232 164.609 61.6967L153.923 65.0141L152.862 61.5981L170.493 56.1247Z" fill="white" style="fill:white;fill-opacity:1;"/>
<path d="M177.379 85.8088L177.203 99.0932L173.954 99.05L174.079 89.6304L169.795 89.5736L169.68 98.194L166.405 98.1505L166.52 89.5301L162.118 89.4716L161.985 99.4284L158.736 99.3852L158.92 85.5637L177.379 85.8088Z" fill="white" style="fill:white;fill-opacity:1;"/>
<path d="M159.821 115.059C160.045 114.415 160.418 113.874 160.94 113.436C161.462 112.998 162.056 112.715 162.72 112.585C163.393 112.458 164.06 112.51 164.72 112.739C165.38 112.969 165.93 113.341 166.371 113.855C166.812 114.369 167.097 114.958 167.227 115.623C167.365 116.29 167.321 116.946 167.098 117.589C166.868 118.249 166.492 118.798 165.97 119.236C165.453 119.685 164.861 119.979 164.194 120.116C163.526 120.254 162.862 120.208 162.202 119.979C161.542 119.749 160.989 119.372 160.543 118.847C160.105 118.325 159.818 117.726 159.683 117.05C159.546 116.382 159.592 115.719 159.821 115.059Z" fill="white" style="fill:white;fill-opacity:1;"/>
<path d="M163.252 139.024L160.83 142.037L155.224 137.53L150.176 143.81L155.782 148.317L153.368 151.319L138.98 139.753L141.393 136.751L147.48 141.643L152.528 135.363L146.442 130.47L148.863 127.458L163.252 139.024Z" fill="white" style="fill:white;fill-opacity:1;"/>
<path d="M147.09 156.767L144.097 159.212L132.418 144.915L135.412 142.47L147.09 156.767Z" fill="white" style="fill:white;fill-opacity:1;"/>
<path d="M137.626 164.152L130.303 167.99C128.965 168.691 127.738 169.078 126.622 169.15C125.506 169.223 124.529 169.005 123.691 168.498C122.845 167.994 122.15 167.224 121.607 166.187C121.177 165.367 120.947 164.551 120.916 163.739C120.877 162.931 121.014 162.169 121.329 161.452C121.647 160.742 122.108 160.116 122.711 159.573L114.816 155.264L118.669 153.245L125.59 157.221L128.758 155.56L125.632 149.595L129.055 147.801L137.626 164.152ZM126.67 160.353C125.68 160.872 125.054 161.466 124.794 162.135C124.537 162.812 124.599 163.514 124.981 164.242C125.374 164.992 125.921 165.415 126.622 165.511C127.328 165.615 128.168 165.411 129.142 164.9L132.682 163.045L130.279 158.461L126.67 160.353Z" fill="white" style="fill:white;fill-opacity:1;"/>
<path d="M115.179 174.249L102.175 176.966L101.51 173.786L110.731 171.859L109.855 167.665L101.416 169.429L100.746 166.222L109.185 164.459L108.284 160.149L98.5371 162.186L97.8724 159.006L111.403 156.178L115.179 174.249Z" fill="white" style="fill:white;fill-opacity:1;"/>
<path d="M81.5998 177.467L76.1312 176.226L75.0946 165.404C75.0484 164.936 75.0163 164.289 74.9983 163.461C74.9802 162.632 74.9704 162.084 74.9688 161.815C74.8427 162.055 74.5903 162.535 74.2119 163.255C73.823 163.982 73.5088 164.538 73.2692 164.922L67.6983 174.312L62.2553 173.076L66.3418 155.073L69.83 155.865L67.3531 166.777C67.1443 167.697 66.9258 168.561 66.6976 169.369C66.4608 170.175 66.3376 170.599 66.328 170.642C66.3384 170.635 66.4913 170.357 66.7865 169.806C66.9355 169.544 67.2517 168.98 67.735 168.113C68.2098 167.244 68.5742 166.606 68.828 166.198L74.4808 156.921L77.5473 157.617L78.6408 168.425C78.7018 168.986 78.7727 169.857 78.8535 171.04C78.9239 172.229 78.9737 173.056 79.0028 173.519L79.0614 173.143C79.0838 173.005 79.1675 172.517 79.3125 171.682C79.4555 170.854 79.5918 170.155 79.7213 169.584L82.1982 158.673L85.6863 159.465L81.5998 177.467Z" fill="white" style="fill:white;fill-opacity:1;"/>
<path d="M52.4723 168.579L41.0707 161.76L42.7386 158.971L50.8232 163.807L53.0225 160.13L45.6238 155.705L47.3051 152.893L54.7038 157.319L56.9636 153.541L48.418 148.429L50.0859 145.641L61.9486 152.736L52.4723 168.579Z" fill="white" style="fill:white;fill-opacity:1;"/>
<path d="M36.0207 138.753C36.4661 139.268 36.7479 139.862 36.8661 140.533C36.9842 141.204 36.9333 141.86 36.7131 142.501C36.4863 143.147 36.1085 143.698 35.5797 144.155C35.051 144.612 34.4538 144.903 33.7882 145.027C33.1227 145.152 32.4697 145.104 31.8293 144.884C31.1824 144.67 30.6362 144.305 30.1908 143.789C29.734 143.26 29.4465 142.66 29.3283 141.989C29.1978 141.317 29.2398 140.657 29.4542 140.01C29.6687 139.363 30.0403 138.812 30.5691 138.355C31.0979 137.898 31.7012 137.608 32.3791 137.484C33.0504 137.366 33.7123 137.417 34.365 137.638C35.012 137.852 35.5639 138.224 36.0207 138.753Z" fill="white" style="fill:white;fill-opacity:1;"/>
<path d="M13.531 129.745L12.1321 126.142L18.8375 123.538L15.921 116.027L9.21564 118.63L7.82143 115.039L25.0307 108.357L26.4249 111.948L19.1455 114.775L22.0619 122.286L29.3414 119.46L30.7403 123.063L13.531 129.745Z" fill="white" style="fill:white;fill-opacity:1;"/>
<path d="M6.24702 106.83L5.63477 103.014L23.8626 100.09L24.4748 103.906L6.24702 106.83Z" fill="white" style="fill:white;fill-opacity:1;"/>
<path d="M4.61186 94.8448L4.96619 86.585C5.03095 85.0752 5.31212 83.8196 5.80971 82.818C6.3073 81.8165 6.98584 81.0806 7.84531 80.6104C8.70517 80.1314 9.71978 79.917 10.8892 79.9672C11.8142 80.0069 12.6358 80.217 13.3538 80.5975C14.0723 80.9693 14.6627 81.4711 15.1252 82.1029C15.579 82.7344 15.8894 83.4471 16.0564 84.2411L23.7448 79.5745L23.5584 83.9204L16.6464 87.9122L16.4931 91.4858L23.2214 91.7744L23.0558 95.636L4.61186 94.8448ZM13.3953 87.2744C13.4432 86.1574 13.2431 85.3182 12.7951 84.7569C12.3383 84.1953 11.6998 83.8969 10.8795 83.8617C10.033 83.8254 9.3923 84.0864 8.95744 84.6448C8.51385 85.2028 8.26847 86.0316 8.2213 87.1311L8.05003 91.1236L13.2206 91.3454L13.3953 87.2744Z" fill="white" style="fill:white;fill-opacity:1;"/>
<path d="M7.11563 70.4173L11.27 57.798L14.3564 58.814L11.4106 67.762L15.4802 69.1018L18.176 60.9129L21.2873 61.9372L18.5914 70.126L22.773 71.5026L25.8867 62.0444L28.9731 63.0604L24.6508 76.19L7.11563 70.4173Z" fill="white" style="fill:white;fill-opacity:1;"/>
<path d="M21.1481 39.7673L24.9653 35.6593L34.8474 40.1917C35.2748 40.3861 35.8513 40.6833 36.5767 41.0831C37.3021 41.4829 37.7816 41.7497 38.0152 41.8832C37.8708 41.6537 37.582 41.1946 37.1489 40.5059C36.7152 39.8048 36.3922 39.2543 36.1797 38.8541L30.8516 29.3245L34.6509 25.2357L48.1746 37.8021L45.7399 40.4224L37.5431 32.8059C36.852 32.1637 36.2142 31.5413 35.6297 30.9385C35.0511 30.3293 34.7458 30.0098 34.7138 29.9801C34.7142 29.9925 34.8787 30.2645 35.2073 30.7964C35.359 31.0566 35.6884 31.6131 36.1956 32.4659C36.7087 33.3124 37.0782 33.9478 37.3039 34.3722L42.4935 43.9161L40.353 46.2196L30.4544 41.7435C29.9392 41.5152 29.1497 41.1393 28.086 40.6159C27.0218 40.0802 26.282 39.7087 25.8665 39.5014L26.1626 39.7409C26.271 39.8296 26.6503 40.1463 27.3007 40.6911C27.9448 41.2299 28.4811 41.6985 28.9098 42.0968L37.1066 49.7134L34.6718 52.3336L21.1481 39.7673Z" fill="white" style="fill:white;fill-opacity:1;"/>
<path d="M43.3562 19.0621L54.9544 12.5821L56.5392 15.4188L48.3153 20.0135L50.405 23.7537L57.9312 19.5488L59.5288 22.4083L52.0026 26.6132L54.1498 30.4564L62.8426 25.5997L64.4275 28.4363L52.3604 35.1782L43.3562 19.0621Z" fill="white" style="fill:white;fill-opacity:1;"/>
<path d="M77.4741 19.6993C76.8046 19.8256 76.1499 19.7714 75.51 19.5366C74.8702 19.3019 74.3286 18.9285 73.8853 18.4166C73.4404 17.8962 73.1531 17.2926 73.0235 16.6059C72.8939 15.9193 72.9422 15.2568 73.1684 14.6186C73.3946 13.9803 73.7636 13.4395 74.2755 12.9962C74.7858 12.5444 75.3757 12.2552 76.0451 12.1289C76.7318 11.9993 77.3951 12.0519 78.0349 12.2866C78.6818 12.5112 79.2311 12.8786 79.683 13.3889C80.1349 13.8992 80.4256 14.4976 80.5552 15.1843C80.6849 15.8709 80.6331 16.5385 80.3999 17.187C80.1651 17.8268 79.7883 18.3735 79.2695 18.827C78.7592 19.2789 78.1607 19.5696 77.4741 19.6993Z" fill="white" style="fill:white;fill-opacity:1;"/>
</svg>
